<svg width="19" height="24" viewBox="0 0 19 24" fill="none" xmlns="http://www.w3.org/2000/svg">
<path d="M6.19799 11.2434C5.87541 11.2434 5.58141 11.1821 5.31599 11.0596C5.05466 10.933 4.82803 10.7656 4.63612 10.5574C4.4442 10.345 4.2972 10.1082 4.19512 9.84687C4.09303 9.58146 4.04199 9.30787 4.04199 9.02612C4.04199 8.74029 4.09508 8.46671 4.20124 8.20537C4.31149 7.93996 4.46258 7.70517 4.65449 7.501C4.85049 7.29275 5.0812 7.12942 5.34662 7.011C5.61203 6.89258 5.90195 6.83337 6.21637 6.83337C6.53895 6.83337 6.83091 6.89667 7.09224 7.02325C7.35766 7.14575 7.58428 7.31317 7.77212 7.5255C7.96403 7.73783 8.11103 7.97671 8.21312 8.24212C8.3152 8.50346 8.36624 8.77092 8.36624 9.0445C8.36624 9.33033 8.31112 9.60596 8.20087 9.87137C8.0947 10.1327 7.94362 10.3675 7.74762 10.5757C7.5557 10.7799 7.32703 10.9432 7.06162 11.0657C6.80028 11.1842 6.51241 11.2434 6.19799 11.2434ZM5.06487 9.03837C5.06487 9.26296 5.10774 9.47529 5.19349 9.67537C5.27924 9.87137 5.40787 10.0327 5.57937 10.1592C5.75087 10.2858 5.95912 10.3491 6.20412 10.3491C6.45728 10.3491 6.66758 10.2838 6.83499 10.1531C7.00649 10.0225 7.13308 9.85708 7.21474 9.657C7.30049 9.45283 7.34337 9.24254 7.34337 9.02612C7.34337 8.80154 7.29845 8.59125 7.20862 8.39525C7.12287 8.19517 6.99424 8.03387 6.82274 7.91137C6.65533 7.78887 6.44912 7.72762 6.20412 7.72762C5.95095 7.72762 5.73862 7.79296 5.56712 7.92362C5.3997 8.05021 5.27312 8.21354 5.18737 8.41362C5.1057 8.61371 5.06487 8.82196 5.06487 9.03837Z" fill="#4F4F4F"/>
<path d="M8.94668 11.2066V6.85787H10.9067C11.1108 6.85787 11.2987 6.90075 11.4702 6.9865C11.6458 7.06817 11.7968 7.18046 11.9234 7.32337C12.05 7.46221 12.148 7.61942 12.2174 7.795C12.2909 7.97058 12.3277 8.14821 12.3277 8.32787C12.3277 8.59737 12.2623 8.84646 12.1317 9.07512C12.0051 9.29971 11.8336 9.47121 11.6172 9.58962L12.5727 11.2066H11.4641L10.6311 9.804H9.95118V11.2066H8.94668ZM9.95118 8.92812H10.8699C10.9883 8.92812 11.0904 8.873 11.1762 8.76275C11.2619 8.64842 11.3048 8.50346 11.3048 8.32787C11.3048 8.15229 11.2558 8.01142 11.1578 7.90525C11.0598 7.795 10.9536 7.73987 10.8393 7.73987H9.95118V8.92812Z" fill="#4F4F4F"/>
<path d="M13.05 11.2066V6.85787H14.0545V11.2066H13.05Z" fill="#4F4F4F"/>
<path d="M4.64924 16.4651L3.16699 22.5834L9.29199 20.5686L15.417 22.5834L13.9347 16.4584" stroke="#4F4F4F" stroke-width="1.5" stroke-linecap="round" stroke-linejoin="round"/>
<path d="M9.29167 17.3333C13.802 17.3333 17.4583 13.677 17.4583 9.16667C17.4583 4.65634 13.802 1 9.29167 1C4.78134 1 1.125 4.65634 1.125 9.16667C1.125 13.677 4.78134 17.3333 9.29167 17.3333Z" stroke="#4F4F4F" stroke-width="1.5" stroke-linecap="round" stroke-linejoin="round"/>
</svg>
