<svg width="66" height="28" viewBox="0 0 66 28" fill="none" xmlns="http://www.w3.org/2000/svg">
<rect width="66" height="28" rx="4" fill="#CD5B63"/>
<path d="M13.3857 15.696C13.9737 15.7987 14.4451 16.0787 14.7997 16.536C15.1544 16.984 15.3317 17.5347 15.3317 18.188C15.3317 18.7667 15.1871 19.2707 14.8977 19.7C14.6084 20.1293 14.2024 20.4607 13.6797 20.694C13.1664 20.9367 12.5551 21.058 11.8457 21.058C11.1364 21.058 10.5111 20.932 9.96973 20.68C9.42839 20.4373 8.99439 20.0827 8.66773 19.616L9.60573 18.552C9.82973 18.8973 10.1191 19.168 10.4737 19.364C10.8284 19.56 11.2764 19.658 11.8177 19.658C12.4244 19.658 12.8957 19.5273 13.2317 19.266C13.5677 19.0047 13.7357 18.6127 13.7357 18.09C13.7357 17.5487 13.5491 17.124 13.1757 16.816C12.8024 16.508 12.2517 16.354 11.5237 16.354H11.1457V15.15H11.5657C12.1911 15.15 12.6717 15.0053 13.0077 14.716C13.3437 14.4173 13.5117 14.044 13.5117 13.596C13.5117 13.1573 13.3577 12.8307 13.0497 12.616C12.7511 12.4013 12.3684 12.294 11.9017 12.294C11.4257 12.294 11.0057 12.3967 10.6417 12.602C10.2777 12.8073 9.98839 13.1013 9.77373 13.484L8.80773 12.434C9.07839 11.986 9.50773 11.6267 10.0957 11.356C10.6931 11.076 11.3464 10.936 12.0557 10.936C12.6717 10.936 13.2084 11.0387 13.6657 11.244C14.1324 11.4493 14.4964 11.7387 14.7577 12.112C15.0191 12.4853 15.1497 12.924 15.1497 13.428C15.1497 13.9787 14.9911 14.4733 14.6737 14.912C14.3564 15.3413 13.9271 15.6027 13.3857 15.696ZM23.7853 14.898C23.7853 15.7193 23.6267 16.452 23.3093 17.096C23.0013 17.7307 22.5767 18.23 22.0353 18.594C21.494 18.958 20.8827 19.14 20.2013 19.14C19.5107 19.14 18.8947 18.958 18.3533 18.594C17.8213 18.23 17.3967 17.7307 17.0793 17.096C16.7713 16.452 16.6173 15.7193 16.6173 14.898C16.6173 14.0767 16.7713 13.3487 17.0793 12.714C17.3967 12.07 17.8213 11.566 18.3533 11.202C18.8947 10.8287 19.5107 10.642 20.2013 10.642C20.8827 10.642 21.494 10.8287 22.0353 11.202C22.5767 11.566 23.0013 12.07 23.3093 12.714C23.6267 13.3487 23.7853 14.0767 23.7853 14.898ZM22.2173 14.898C22.2173 14.338 22.1287 13.848 21.9513 13.428C21.7833 12.9987 21.5453 12.6673 21.2373 12.434C20.9387 12.1913 20.5933 12.07 20.2013 12.07C19.8 12.07 19.4453 12.1913 19.1373 12.434C18.8293 12.6673 18.5867 12.9987 18.4093 13.428C18.2413 13.848 18.1573 14.338 18.1573 14.898C18.1573 15.738 18.344 16.4193 18.7173 16.942C19.1 17.4553 19.5947 17.712 20.2013 17.712C20.5933 17.712 20.9387 17.5953 21.2373 17.362C21.5453 17.1287 21.7833 16.802 21.9513 16.382C22.1287 15.9527 22.2173 15.458 22.2173 14.898ZM27.2329 13.078C26.8223 13.078 26.4489 12.9847 26.1129 12.798C25.7769 12.6113 25.5063 12.364 25.3009 12.056C25.1049 11.7387 25.0069 11.3887 25.0069 11.006C25.0069 10.614 25.1049 10.264 25.3009 9.956C25.5063 9.63867 25.7769 9.38667 26.1129 9.2C26.4489 9.01333 26.8223 8.92 27.2329 8.92C27.6529 8.92 28.0309 9.01333 28.3669 9.2C28.7029 9.38667 28.9689 9.63867 29.1649 9.956C29.3609 10.264 29.4589 10.614 29.4589 11.006C29.4589 11.3887 29.3609 11.7387 29.1649 12.056C28.9689 12.364 28.7029 12.6113 28.3669 12.798C28.0309 12.9847 27.6529 13.078 27.2329 13.078ZM25.6369 18.44L29.5709 13.778L33.2669 8.976L33.9949 9.606L30.1309 14.212L26.3509 19.084L25.6369 18.44ZM27.2329 12.28C27.5503 12.28 27.8163 12.154 28.0309 11.902C28.2549 11.6407 28.3669 11.342 28.3669 11.006C28.3669 10.6513 28.2549 10.348 28.0309 10.096C27.8069 9.844 27.5409 9.718 27.2329 9.718C26.9249 9.718 26.6589 9.84867 26.4349 10.11C26.2109 10.362 26.0989 10.6607 26.0989 11.006C26.0989 11.3513 26.2109 11.65 26.4349 11.902C26.6589 12.154 26.9249 12.28 27.2329 12.28ZM32.3849 19.14C31.9743 19.14 31.6009 19.0467 31.2649 18.86C30.9289 18.6733 30.6583 18.426 30.4529 18.118C30.2569 17.8007 30.1589 17.446 30.1589 17.054C30.1589 16.6713 30.2569 16.326 30.4529 16.018C30.6583 15.7007 30.9289 15.4487 31.2649 15.262C31.6009 15.0753 31.9743 14.982 32.3849 14.982C32.8049 14.982 33.1829 15.0753 33.5189 15.262C33.8549 15.4487 34.1209 15.7007 34.3169 16.018C34.5129 16.326 34.6109 16.6713 34.6109 17.054C34.6109 17.446 34.5129 17.8007 34.3169 18.118C34.1209 18.426 33.8549 18.6733 33.5189 18.86C33.1829 19.0467 32.8049 19.14 32.3849 19.14ZM32.3849 18.342C32.7023 18.342 32.9683 18.216 33.1829 17.964C33.4069 17.712 33.5189 17.4087 33.5189 17.054C33.5189 16.7087 33.4069 16.41 33.1829 16.158C32.9589 15.906 32.6929 15.78 32.3849 15.78C32.0769 15.78 31.8109 15.9107 31.5869 16.172C31.3629 16.424 31.2509 16.718 31.2509 17.054C31.2509 17.4087 31.3629 17.712 31.5869 17.964C31.8109 18.216 32.0769 18.342 32.3849 18.342ZM43.8213 19.07C43.112 19.07 42.4633 18.93 41.8753 18.65C41.2966 18.37 40.7973 17.992 40.3773 17.516C39.9573 17.0307 39.6306 16.4893 39.3973 15.892C39.1733 15.2853 39.0613 14.6647 39.0613 14.03C39.0613 13.3673 39.1826 12.7373 39.4253 12.14C39.668 11.5333 40.004 10.9967 40.4333 10.53C40.8626 10.054 41.3666 9.68067 41.9453 9.41C42.5333 9.13 43.168 8.99 43.8493 8.99C44.5586 8.99 45.2026 9.13467 45.7813 9.424C46.3693 9.71333 46.8686 10.1007 47.2793 10.586C47.6993 11.0713 48.0213 11.6127 48.2453 12.21C48.4786 12.8073 48.5953 13.4187 48.5953 14.044C48.5953 14.7067 48.474 15.3413 48.2313 15.948C47.998 16.5453 47.6666 17.082 47.2373 17.558C46.808 18.0247 46.2993 18.3933 45.7113 18.664C45.1326 18.9347 44.5026 19.07 43.8213 19.07ZM40.6573 14.03C40.6573 14.6553 40.788 15.248 41.0493 15.808C41.3106 16.3587 41.6746 16.8067 42.1413 17.152C42.6173 17.488 43.182 17.656 43.8353 17.656C44.33 17.656 44.7733 17.5533 45.1653 17.348C45.5573 17.1427 45.8886 16.8673 46.1593 16.522C46.43 16.1673 46.6353 15.7753 46.7753 15.346C46.9153 14.9167 46.9853 14.478 46.9853 14.03C46.9853 13.4047 46.8546 12.8167 46.5933 12.266C46.3413 11.7153 45.9773 11.272 45.5013 10.936C45.0253 10.5907 44.47 10.418 43.8353 10.418C43.3313 10.418 42.8833 10.5207 42.4913 10.726C42.0993 10.9313 41.768 11.2067 41.4973 11.552C41.2266 11.8973 41.0166 12.2847 40.8673 12.714C40.7273 13.1433 40.6573 13.582 40.6573 14.03ZM50.4426 19V13.05H49.4626V11.86H50.4426V11.748C50.4426 11.2813 50.5406 10.852 50.7366 10.46C50.9326 10.068 51.2126 9.75533 51.5766 9.522C51.95 9.27933 52.3886 9.158 52.8926 9.158C53.2006 9.158 53.4806 9.19067 53.7326 9.256C53.994 9.32133 54.2553 9.41 54.5166 9.522C54.9366 8.934 55.5293 8.64 56.2946 8.64C56.892 8.64 57.4566 8.78933 57.9886 9.088L57.6526 10.236C57.5126 10.152 57.3493 10.082 57.1626 10.026C56.976 9.97 56.794 9.942 56.6166 9.942C56.2526 9.942 55.9726 10.0773 55.7766 10.348C55.59 10.6187 55.4966 11.0107 55.4966 11.524V11.86H57.3586V13.05H55.4966V19H53.9566V13.05H51.9826V19H50.4426ZM51.9826 11.692V11.86H53.9566V11.566C53.9566 11.2393 53.9846 10.9313 54.0406 10.642C53.9006 10.5767 53.7606 10.5347 53.6206 10.516C53.4806 10.488 53.3406 10.474 53.2006 10.474C52.7993 10.474 52.496 10.6047 52.2906 10.866C52.0853 11.118 51.9826 11.3933 51.9826 11.692Z" fill="white"/>
</svg>
