<svg width="100" height="24" viewBox="0 0 100 24" fill="none" xmlns="http://www.w3.org/2000/svg">
<rect width="100" height="24" rx="12" fill="#828282" fill-opacity="0.5"/>
<path d="M14.7691 9.972V17H13.2011V7.06H14.4891L20.1171 14.242V7.074H21.6991V17H20.3271L14.7691 9.972ZM26.9324 17.14C26.1764 17.14 25.5138 16.9673 24.9444 16.622C24.3751 16.2767 23.9318 15.8193 23.6144 15.25C23.2971 14.6713 23.1384 14.0413 23.1384 13.36C23.1384 12.6693 23.2971 12.0347 23.6144 11.456C23.9318 10.8773 24.3751 10.4153 24.9444 10.07C25.5138 9.72467 26.1811 9.552 26.9464 9.552C27.7118 9.552 28.3744 9.72933 28.9344 10.084C29.4944 10.4293 29.9238 10.8867 30.2224 11.456C30.5304 12.0253 30.6844 12.6367 30.6844 13.29C30.6844 13.5233 30.6704 13.71 30.6424 13.85H24.7764C24.8044 14.2793 24.9211 14.6573 25.1264 14.984C25.3411 15.3013 25.6071 15.5533 25.9244 15.74C26.2511 15.9173 26.6058 16.006 26.9884 16.006C27.3991 16.006 27.7864 15.9033 28.1504 15.698C28.5144 15.4927 28.7664 15.222 28.9064 14.886L30.2224 15.264C29.9704 15.8147 29.5504 16.2673 28.9624 16.622C28.3838 16.9673 27.7071 17.14 26.9324 17.14ZM24.7344 12.828H29.1584C29.1211 12.408 28.9998 12.0393 28.7944 11.722C28.5891 11.3953 28.3231 11.1433 27.9964 10.966C27.6791 10.7793 27.3244 10.686 26.9324 10.686C26.5498 10.686 26.1951 10.7793 25.8684 10.966C25.5511 11.1433 25.2898 11.3953 25.0844 11.722C24.8791 12.0393 24.7624 12.408 24.7344 12.828ZM40.8635 9.678H42.3335L39.2535 17H37.9375L36.6215 13.696L35.3055 17H33.9895L30.8955 9.678H32.3655L34.7175 15.502L35.7535 12.8L34.4935 9.692H35.7955L36.6215 11.974L37.4335 9.692H38.7355L37.4895 12.8L38.5255 15.502L40.8635 9.678ZM49.0476 7.06H50.5316L54.3956 17H52.7436L51.6936 14.298H47.8576L46.8216 17H45.1556L49.0476 7.06ZM51.3856 13.136L49.7896 8.782L48.1376 13.136H51.3856ZM59.5449 11.008C58.9475 11.0267 58.4155 11.1667 57.9489 11.428C57.4915 11.68 57.1649 12.044 56.9689 12.52V17H55.4289V9.678H56.8569V11.316C57.1089 10.812 57.4402 10.4107 57.8509 10.112C58.2615 9.804 58.6955 9.636 59.1529 9.608C59.2369 9.608 59.3115 9.608 59.3769 9.608C59.4422 9.608 59.4982 9.61267 59.5449 9.622V11.008ZM64.7812 11.008C64.1839 11.0267 63.6519 11.1667 63.1852 11.428C62.7279 11.68 62.4012 12.044 62.2052 12.52V17H60.6652V9.678H62.0932V11.316C62.3452 10.812 62.6765 10.4107 63.0872 10.112C63.4979 9.804 63.9319 9.636 64.3892 9.608C64.4732 9.608 64.5479 9.608 64.6132 9.608C64.6785 9.608 64.7345 9.61267 64.7812 9.622V11.008ZM65.9015 8.474V6.78H67.4415V8.474H65.9015ZM65.9015 17V9.678H67.4415V17H65.9015ZM71.3362 17L68.5502 9.678H70.1462L72.2322 15.572L74.3182 9.678H75.8022L73.0162 17H71.3362ZM76.1977 14.858C76.1977 14.3913 76.3283 13.9853 76.5897 13.64C76.851 13.2853 77.215 13.0147 77.6817 12.828C78.1577 12.632 78.7037 12.534 79.3197 12.534C79.6463 12.534 79.9777 12.562 80.3137 12.618C80.659 12.6647 80.9623 12.7347 81.2237 12.828V12.366C81.2237 11.8527 81.0697 11.4513 80.7617 11.162C80.4537 10.8727 80.0103 10.728 79.4317 10.728C79.0303 10.728 78.643 10.798 78.2697 10.938C77.8963 11.078 77.509 11.2833 77.1077 11.554L76.5897 10.518C77.075 10.2007 77.5603 9.96267 78.0457 9.804C78.5403 9.636 79.0583 9.552 79.5997 9.552C80.5797 9.552 81.3497 9.81333 81.9097 10.336C82.479 10.8493 82.7637 11.582 82.7637 12.534V15.264C82.7637 15.4413 82.7917 15.5673 82.8477 15.642C82.913 15.7167 83.0203 15.7587 83.1697 15.768V17C83.0297 17.028 82.9037 17.0467 82.7917 17.056C82.6797 17.0653 82.5863 17.07 82.5117 17.07C82.1757 17.07 81.9237 16.9907 81.7557 16.832C81.597 16.664 81.5037 16.4773 81.4757 16.272L81.4337 15.852C81.1163 16.2627 80.7103 16.58 80.2157 16.804C79.721 17.028 79.2217 17.14 78.7177 17.14C78.2323 17.14 77.7983 17.042 77.4157 16.846C77.033 16.6407 76.7343 16.3653 76.5197 16.02C76.305 15.6747 76.1977 15.2873 76.1977 14.858ZM80.8597 15.306C81.1023 15.0633 81.2237 14.8347 81.2237 14.62V13.78C80.673 13.5747 80.113 13.472 79.5437 13.472C78.9837 13.472 78.5263 13.5887 78.1717 13.822C77.8263 14.046 77.6537 14.3493 77.6537 14.732C77.6537 15.0493 77.7797 15.3433 78.0317 15.614C78.293 15.8753 78.6663 16.006 79.1517 16.006C79.4783 16.006 79.7957 15.9407 80.1037 15.81C80.4117 15.6793 80.6637 15.5113 80.8597 15.306ZM84.646 6.78H86.186V14.886C86.186 15.2593 86.242 15.4973 86.354 15.6C86.466 15.7027 86.606 15.754 86.774 15.754C86.9607 15.754 87.138 15.7353 87.306 15.698C87.474 15.6607 87.614 15.614 87.726 15.558L87.95 16.776C87.726 16.8693 87.46 16.9487 87.152 17.014C86.844 17.0793 86.5687 17.112 86.326 17.112C85.8033 17.112 85.3927 16.9673 85.094 16.678C84.7953 16.3793 84.646 15.9687 84.646 15.446V6.78Z" fill="white"/>
</svg>
