<svg width="43" height="65" viewBox="0 0 43 65" fill="none" xmlns="http://www.w3.org/2000/svg">
<path fill-rule="evenodd" clip-rule="evenodd" d="M4 0C1.79086 0 0 1.79086 0 4V61C0 63.1243 1.65597 64.8618 3.74744 64.9922L22.5 52L40.7107 64.6168C42.064 63.9755 43 62.5971 43 61V4C43 1.79086 41.2091 0 39 0H4Z" fill="#CD5B63"/>
<path d="M13.2197 15.696C13.8077 15.7987 14.279 16.0787 14.6337 16.536C14.9884 16.984 15.1657 17.5347 15.1657 18.188C15.1657 18.7667 15.021 19.2707 14.7317 19.7C14.4424 20.1293 14.0364 20.4607 13.5137 20.694C13.0004 20.9367 12.389 21.058 11.6797 21.058C10.9704 21.058 10.345 20.932 9.80371 20.68C9.26238 20.4373 8.82838 20.0827 8.50171 19.616L9.43971 18.552C9.66371 18.8973 9.95304 19.168 10.3077 19.364C10.6624 19.56 11.1104 19.658 11.6517 19.658C12.2584 19.658 12.7297 19.5273 13.0657 19.266C13.4017 19.0047 13.5697 18.6127 13.5697 18.09C13.5697 17.5487 13.383 17.124 13.0097 16.816C12.6364 16.508 12.0857 16.354 11.3577 16.354H10.9797V15.15H11.3997C12.025 15.15 12.5057 15.0053 12.8417 14.716C13.1777 14.4173 13.3457 14.044 13.3457 13.596C13.3457 13.1573 13.1917 12.8307 12.8837 12.616C12.585 12.4013 12.2024 12.294 11.7357 12.294C11.2597 12.294 10.8397 12.3967 10.4757 12.602C10.1117 12.8073 9.82238 13.1013 9.60771 13.484L8.64171 12.434C8.91238 11.986 9.34171 11.6267 9.92971 11.356C10.527 11.076 11.1804 10.936 11.8897 10.936C12.5057 10.936 13.0424 11.0387 13.4997 11.244C13.9664 11.4493 14.3304 11.7387 14.5917 12.112C14.853 12.4853 14.9837 12.924 14.9837 13.428C14.9837 13.9787 14.825 14.4733 14.5077 14.912C14.1904 15.3413 13.761 15.6027 13.2197 15.696ZM23.6193 14.898C23.6193 15.7193 23.4606 16.452 23.1433 17.096C22.8353 17.7307 22.4106 18.23 21.8693 18.594C21.328 18.958 20.7166 19.14 20.0353 19.14C19.3446 19.14 18.7286 18.958 18.1873 18.594C17.6553 18.23 17.2306 17.7307 16.9133 17.096C16.6053 16.452 16.4513 15.7193 16.4513 14.898C16.4513 14.0767 16.6053 13.3487 16.9133 12.714C17.2306 12.07 17.6553 11.566 18.1873 11.202C18.7286 10.8287 19.3446 10.642 20.0353 10.642C20.7166 10.642 21.328 10.8287 21.8693 11.202C22.4106 11.566 22.8353 12.07 23.1433 12.714C23.4606 13.3487 23.6193 14.0767 23.6193 14.898ZM22.0513 14.898C22.0513 14.338 21.9626 13.848 21.7853 13.428C21.6173 12.9987 21.3793 12.6673 21.0713 12.434C20.7726 12.1913 20.4273 12.07 20.0353 12.07C19.634 12.07 19.2793 12.1913 18.9713 12.434C18.6633 12.6673 18.4206 12.9987 18.2433 13.428C18.0753 13.848 17.9913 14.338 17.9913 14.898C17.9913 15.738 18.178 16.4193 18.5513 16.942C18.934 17.4553 19.4286 17.712 20.0353 17.712C20.4273 17.712 20.7726 17.5953 21.0713 17.362C21.3793 17.1287 21.6173 16.802 21.7853 16.382C21.9626 15.9527 22.0513 15.458 22.0513 14.898ZM27.0669 13.078C26.6562 13.078 26.2829 12.9847 25.9469 12.798C25.6109 12.6113 25.3402 12.364 25.1349 12.056C24.9389 11.7387 24.8409 11.3887 24.8409 11.006C24.8409 10.614 24.9389 10.264 25.1349 9.956C25.3402 9.63867 25.6109 9.38667 25.9469 9.2C26.2829 9.01333 26.6562 8.92 27.0669 8.92C27.4869 8.92 27.8649 9.01333 28.2009 9.2C28.5369 9.38667 28.8029 9.63867 28.9989 9.956C29.1949 10.264 29.2929 10.614 29.2929 11.006C29.2929 11.3887 29.1949 11.7387 28.9989 12.056C28.8029 12.364 28.5369 12.6113 28.2009 12.798C27.8649 12.9847 27.4869 13.078 27.0669 13.078ZM25.4709 18.44L29.4049 13.778L33.1009 8.976L33.8289 9.606L29.9649 14.212L26.1849 19.084L25.4709 18.44ZM27.0669 12.28C27.3842 12.28 27.6502 12.154 27.8649 11.902C28.0889 11.6407 28.2009 11.342 28.2009 11.006C28.2009 10.6513 28.0889 10.348 27.8649 10.096C27.6409 9.844 27.3749 9.718 27.0669 9.718C26.7589 9.718 26.4929 9.84867 26.2689 10.11C26.0449 10.362 25.9329 10.6607 25.9329 11.006C25.9329 11.3513 26.0449 11.65 26.2689 11.902C26.4929 12.154 26.7589 12.28 27.0669 12.28ZM32.2189 19.14C31.8082 19.14 31.4349 19.0467 31.0989 18.86C30.7629 18.6733 30.4922 18.426 30.2869 18.118C30.0909 17.8007 29.9929 17.446 29.9929 17.054C29.9929 16.6713 30.0909 16.326 30.2869 16.018C30.4922 15.7007 30.7629 15.4487 31.0989 15.262C31.4349 15.0753 31.8082 14.982 32.2189 14.982C32.6389 14.982 33.0169 15.0753 33.3529 15.262C33.6889 15.4487 33.9549 15.7007 34.1509 16.018C34.3469 16.326 34.4449 16.6713 34.4449 17.054C34.4449 17.446 34.3469 17.8007 34.1509 18.118C33.9549 18.426 33.6889 18.6733 33.3529 18.86C33.0169 19.0467 32.6389 19.14 32.2189 19.14ZM32.2189 18.342C32.5362 18.342 32.8022 18.216 33.0169 17.964C33.2409 17.712 33.3529 17.4087 33.3529 17.054C33.3529 16.7087 33.2409 16.41 33.0169 16.158C32.7929 15.906 32.5269 15.78 32.2189 15.78C31.9109 15.78 31.6449 15.9107 31.4209 16.172C31.1969 16.424 31.0849 16.718 31.0849 17.054C31.0849 17.4087 31.1969 17.712 31.4209 17.964C31.6449 18.216 31.9109 18.342 32.2189 18.342ZM17.1455 39.07C16.4362 39.07 15.7875 38.93 15.1995 38.65C14.6208 38.37 14.1215 37.992 13.7015 37.516C13.2815 37.0307 12.9548 36.4893 12.7215 35.892C12.4975 35.2853 12.3855 34.6647 12.3855 34.03C12.3855 33.3673 12.5068 32.7373 12.7495 32.14C12.9922 31.5333 13.3282 30.9967 13.7575 30.53C14.1868 30.054 14.6908 29.6807 15.2695 29.41C15.8575 29.13 16.4922 28.99 17.1735 28.99C17.8828 28.99 18.5268 29.1347 19.1055 29.424C19.6935 29.7133 20.1928 30.1007 20.6035 30.586C21.0235 31.0713 21.3455 31.6127 21.5695 32.21C21.8028 32.8073 21.9195 33.4187 21.9195 34.044C21.9195 34.7067 21.7982 35.3413 21.5555 35.948C21.3222 36.5453 20.9908 37.082 20.5615 37.558C20.1322 38.0247 19.6235 38.3933 19.0355 38.664C18.4568 38.9347 17.8268 39.07 17.1455 39.07ZM13.9815 34.03C13.9815 34.6553 14.1122 35.248 14.3735 35.808C14.6348 36.3587 14.9988 36.8067 15.4655 37.152C15.9415 37.488 16.5062 37.656 17.1595 37.656C17.6542 37.656 18.0975 37.5533 18.4895 37.348C18.8815 37.1427 19.2128 36.8673 19.4835 36.522C19.7542 36.1673 19.9595 35.7753 20.0995 35.346C20.2395 34.9167 20.3095 34.478 20.3095 34.03C20.3095 33.4047 20.1788 32.8167 19.9175 32.266C19.6655 31.7153 19.3015 31.272 18.8255 30.936C18.3495 30.5907 17.7942 30.418 17.1595 30.418C16.6555 30.418 16.2075 30.5207 15.8155 30.726C15.4235 30.9313 15.0922 31.2067 14.8215 31.552C14.5508 31.8973 14.3408 32.2847 14.1915 32.714C14.0515 33.1433 13.9815 33.582 13.9815 34.03ZM23.7669 39V33.05H22.7869V31.86H23.7669V31.748C23.7669 31.2813 23.8649 30.852 24.0609 30.46C24.2569 30.068 24.5369 29.7553 24.9009 29.522C25.2742 29.2793 25.7129 29.158 26.2169 29.158C26.5249 29.158 26.8049 29.1907 27.0569 29.256C27.3182 29.3213 27.5795 29.41 27.8409 29.522C28.2609 28.934 28.8535 28.64 29.6189 28.64C30.2162 28.64 30.7809 28.7893 31.3129 29.088L30.9769 30.236C30.8369 30.152 30.6735 30.082 30.4869 30.026C30.3002 29.97 30.1182 29.942 29.9409 29.942C29.5769 29.942 29.2969 30.0773 29.1009 30.348C28.9142 30.6187 28.8209 31.0107 28.8209 31.524V31.86H30.6829V33.05H28.8209V39H27.2809V33.05H25.3069V39H23.7669ZM25.3069 31.692V31.86H27.2809V31.566C27.2809 31.2393 27.3089 30.9313 27.3649 30.642C27.2249 30.5767 27.0849 30.5347 26.9449 30.516C26.8049 30.488 26.6649 30.474 26.5249 30.474C26.1235 30.474 25.8202 30.6047 25.6149 30.866C25.4095 31.118 25.3069 31.3933 25.3069 31.692Z" fill="white"/>
</svg>
