<svg width="11" height="5" viewBox="0 0 11 5" fill="none" xmlns="http://www.w3.org/2000/svg">
<path d="M2.19799 4.74337C1.87541 4.74337 1.58141 4.68212 1.31599 4.55962C1.05466 4.43304 0.828034 4.26562 0.636117 4.05737C0.444201 3.84504 0.297201 3.60821 0.195117 3.34687C0.0930339 3.08146 0.0419922 2.80787 0.0419922 2.52612C0.0419922 2.24029 0.0950755 1.96671 0.201242 1.70537C0.311492 1.43996 0.462576 1.20517 0.654492 1.001C0.850492 0.792749 1.0812 0.629416 1.34662 0.510999C1.61203 0.392582 1.90195 0.333374 2.21637 0.333374C2.53895 0.333374 2.83091 0.396666 3.09224 0.523249C3.35766 0.645749 3.58428 0.813166 3.77212 1.0255C3.96403 1.23783 4.11103 1.47671 4.21312 1.74212C4.3152 2.00346 4.36624 2.27092 4.36624 2.5445C4.36624 2.83033 4.31112 3.10596 4.20087 3.37137C4.0947 3.63271 3.94362 3.8675 3.74762 4.07575C3.5557 4.27992 3.32703 4.44325 3.06162 4.56575C2.80028 4.68417 2.51241 4.74337 2.19799 4.74337ZM1.06487 2.53837C1.06487 2.76296 1.10774 2.97529 1.19349 3.17537C1.27924 3.37137 1.40787 3.53267 1.57937 3.65925C1.75087 3.78583 1.95912 3.84912 2.20412 3.84912C2.45728 3.84912 2.66758 3.78379 2.83499 3.65312C3.00649 3.52246 3.13308 3.35708 3.21474 3.157C3.30049 2.95283 3.34337 2.74254 3.34337 2.52612C3.34337 2.30154 3.29845 2.09125 3.20862 1.89525C3.12287 1.69517 2.99424 1.53387 2.82274 1.41137C2.65533 1.28887 2.44912 1.22762 2.20412 1.22762C1.95095 1.22762 1.73862 1.29296 1.56712 1.42362C1.3997 1.55021 1.27312 1.71354 1.18737 1.91362C1.1057 2.11371 1.06487 2.32196 1.06487 2.53837Z" fill="#4F4F4F"/>
<path d="M4.94668 4.70662V0.357874H6.90668C7.11085 0.357874 7.29868 0.400749 7.47018 0.486499C7.64577 0.568166 7.79685 0.680457 7.92343 0.823374C8.05002 0.962207 8.14802 1.11942 8.21743 1.295C8.29093 1.47058 8.32768 1.64821 8.32768 1.82787C8.32768 2.09737 8.26235 2.34646 8.13168 2.57512C8.0051 2.79971 7.8336 2.97121 7.61718 3.08962L8.57268 4.70662H7.46406L6.63106 3.304H5.95118V4.70662H4.94668ZM5.95118 2.42812H6.86993C6.98835 2.42812 7.09043 2.373 7.17618 2.26275C7.26193 2.14842 7.30481 2.00346 7.30481 1.82787C7.30481 1.65229 7.25581 1.51142 7.15781 1.40525C7.05981 1.295 6.95364 1.23987 6.83931 1.23987H5.95118V2.42812Z" fill="#4F4F4F"/>
<path d="M9.04995 4.70662V0.357874H10.0545V4.70662H9.04995Z" fill="#4F4F4F"/>
</svg>
